<svg width="151" height="48" viewBox="0 0 151 48" fill="none" xmlns="http://www.w3.org/2000/svg">
<path d="M54.9275 21.131V3.56471H66.7571V6.88532H58.9047V10.5608H65.8903V13.8814H58.9047V21.131H54.9275Z" fill="#516AA3"/>
<path d="M73.1109 21.131H69.3122V7.79785H73.1109V21.131ZM73.4679 3.94493C73.4679 4.63778 73.2384 5.18699 72.7795 5.59256C72.3376 5.98123 71.8107 6.17557 71.1988 6.17557C70.5869 6.17557 70.0515 5.98123 69.5926 5.59256C69.1507 5.18699 68.9298 4.63778 68.9298 3.94493C68.9298 3.25208 69.1507 2.71132 69.5926 2.32265C70.0515 1.91708 70.5869 1.71429 71.1988 1.71429C71.8107 1.71429 72.3376 1.91708 72.7795 2.32265C73.2384 2.71132 73.4679 3.25208 73.4679 3.94493Z" fill="#516AA3"/>
<path d="M76.6818 8.25412C77.3277 8.06823 78.1605 7.89924 79.1803 7.74715C80.2001 7.57817 81.2709 7.49367 82.3927 7.49367C83.5314 7.49367 84.4747 7.64576 85.2226 7.94994C85.9874 8.23722 86.5908 8.65124 87.0327 9.192C87.4746 9.73276 87.7891 10.3749 87.976 11.1185C88.163 11.862 88.2565 12.69 88.2565 13.6026V21.131H84.4577V14.0588C84.4577 12.8421 84.2963 11.9803 83.9733 11.4733C83.6504 10.9664 83.047 10.7129 82.1632 10.7129C81.8913 10.7129 81.6023 10.7298 81.2964 10.7636C80.9904 10.7805 80.7185 10.8058 80.4805 10.8396V21.131H76.6818V8.25412Z" fill="#516AA3"/>
<path d="M96.8194 18.4948C97.1933 18.4948 97.5502 18.4863 97.8902 18.4694C98.2301 18.4525 98.502 18.4272 98.706 18.3934V15.529C98.553 15.4952 98.3236 15.4614 98.0176 15.4276C97.7117 15.3938 97.4313 15.3769 97.1763 15.3769C96.8194 15.3769 96.4795 15.4023 96.1565 15.453C95.8506 15.4868 95.5786 15.5628 95.3407 15.6811C95.1027 15.7994 94.9158 15.96 94.7798 16.1627C94.6438 16.3655 94.5758 16.619 94.5758 16.9232C94.5758 17.5146 94.7713 17.9287 95.1622 18.1652C95.5701 18.3849 96.1225 18.4948 96.8194 18.4948ZM96.5134 7.44298C97.6352 7.44298 98.57 7.56972 99.3179 7.8232C100.066 8.07668 100.661 8.44 101.103 8.91317C101.561 9.38633 101.884 9.96089 102.071 10.6368C102.258 11.3128 102.352 12.0648 102.352 12.8928V20.7508C101.808 20.869 101.052 21.0042 100.083 21.1563C99.1139 21.3253 97.9412 21.4098 96.5644 21.4098C95.6976 21.4098 94.9073 21.3338 94.1934 21.1817C93.4966 21.0296 92.8932 20.7845 92.3833 20.4466C91.8734 20.0917 91.4825 19.6354 91.2105 19.0778C90.9386 18.5201 90.8026 17.8357 90.8026 17.0246C90.8026 16.2472 90.9556 15.5882 91.2615 15.0474C91.5844 14.5067 92.0093 14.0757 92.5362 13.7547C93.0631 13.4336 93.6665 13.2055 94.3464 13.0703C95.0262 12.9182 95.7316 12.8421 96.4625 12.8421C96.9554 12.8421 97.3888 12.8675 97.7627 12.9182C98.1536 12.952 98.4681 13.0027 98.706 13.0703V12.7154C98.706 12.0732 98.5105 11.5578 98.1196 11.1692C97.7287 10.7805 97.0488 10.5861 96.08 10.5861C95.4342 10.5861 94.7968 10.6368 94.1679 10.7382C93.539 10.8227 92.9952 10.9495 92.5362 11.1185L92.0518 8.07668C92.2728 8.00908 92.5447 7.94149 92.8677 7.87389C93.2076 7.7894 93.573 7.72181 93.964 7.67111C94.3549 7.60351 94.7628 7.55282 95.1877 7.51902C95.6296 7.46832 96.0715 7.44298 96.5134 7.44298Z" fill="#516AA3"/>
<path d="M105.787 8.25412C106.433 8.06823 107.266 7.89924 108.285 7.74715C109.305 7.57817 110.376 7.49367 111.498 7.49367C112.636 7.49367 113.58 7.64576 114.328 7.94994C115.092 8.23722 115.696 8.65124 116.138 9.192C116.58 9.73276 116.894 10.3749 117.081 11.1185C117.268 11.862 117.361 12.69 117.361 13.6026V21.131H113.563V14.0588C113.563 12.8421 113.401 11.9803 113.078 11.4733C112.755 10.9664 112.152 10.7129 111.268 10.7129C110.996 10.7129 110.707 10.7298 110.401 10.7636C110.095 10.7805 109.824 10.8058 109.586 10.8396V21.131H105.787V8.25412Z" fill="#516AA3"/>
<path d="M120.163 14.4644C120.163 13.5012 120.316 12.5971 120.621 11.7522C120.944 10.8903 121.403 10.1468 121.998 9.52152C122.593 8.87937 123.315 8.37241 124.165 8.00064C125.015 7.62886 125.984 7.44298 127.072 7.44298C127.786 7.44298 128.44 7.51057 129.035 7.64576C129.63 7.76405 130.208 7.94149 130.768 8.17807L129.978 11.1945C129.621 11.0593 129.23 10.941 128.805 10.8396C128.38 10.7382 127.904 10.6875 127.378 10.6875C126.256 10.6875 125.414 11.034 124.854 11.7268C124.31 12.4197 124.038 13.3322 124.038 14.4644C124.038 15.6642 124.293 16.5937 124.803 17.2527C125.33 17.9118 126.239 18.2413 127.531 18.2413C127.989 18.2413 128.482 18.199 129.009 18.1145C129.536 18.0301 130.021 17.8949 130.462 17.709L130.998 20.8014C130.556 20.9873 130.004 21.1479 129.341 21.2831C128.678 21.4183 127.947 21.4858 127.148 21.4858C125.924 21.4858 124.871 21.3084 123.987 20.9535C123.103 20.5818 122.372 20.0833 121.794 19.458C121.233 18.8327 120.817 18.0976 120.545 17.2527C120.29 16.3909 120.163 15.4614 120.163 14.4644Z" fill="#516AA3"/>
<path d="M132.263 14.5658C132.263 13.3829 132.441 12.3521 132.798 11.4733C133.172 10.5777 133.656 9.83415 134.251 9.24269C134.846 8.65124 135.526 8.20342 136.291 7.89924C137.073 7.59506 137.872 7.44298 138.687 7.44298C140.591 7.44298 142.095 8.02598 143.2 9.192C144.305 10.3411 144.857 12.0394 144.857 14.287C144.857 14.5067 144.849 14.7517 144.832 15.0221C144.815 15.2756 144.798 15.5037 144.781 15.7065H136.163C136.248 16.4838 136.614 17.1006 137.26 17.5569C137.906 18.0132 138.772 18.2413 139.86 18.2413C140.557 18.2413 141.237 18.1821 141.9 18.0639C142.58 17.9287 143.132 17.7681 143.557 17.5822L144.067 20.6494C143.863 20.7508 143.591 20.8521 143.251 20.9535C142.911 21.0549 142.529 21.1394 142.104 21.207C141.696 21.2915 141.254 21.3591 140.778 21.4098C140.302 21.4605 139.826 21.4858 139.35 21.4858C138.143 21.4858 137.09 21.3084 136.189 20.9535C135.305 20.5987 134.566 20.1171 133.971 19.5087C133.393 18.8834 132.96 18.1483 132.671 17.3034C132.399 16.4585 132.263 15.5459 132.263 14.5658ZM141.186 13.121C141.169 12.7999 141.109 12.4873 141.007 12.1831C140.922 11.8789 140.778 11.6085 140.574 11.3719C140.387 11.1354 140.141 10.941 139.835 10.7889C139.546 10.6368 139.18 10.5608 138.738 10.5608C138.313 10.5608 137.948 10.6368 137.642 10.7889C137.336 10.9241 137.081 11.11 136.877 11.3466C136.673 11.5832 136.512 11.862 136.393 12.1831C136.291 12.4873 136.214 12.7999 136.163 13.121H141.186Z" fill="#516AA3"/>
<path d="M66.7571 43.3106C66.5702 42.7022 66.3577 42.077 66.1198 41.4348C65.8988 40.7927 65.6778 40.1505 65.4569 39.5084H58.5733C58.3523 40.1505 58.1229 40.7927 57.8849 41.4348C57.6639 42.077 57.46 42.7022 57.273 43.3106H53.1429C53.8057 41.4179 54.4346 39.6689 55.0295 38.0635C55.6244 36.4582 56.2022 34.9457 56.7631 33.5262C57.341 32.1067 57.9019 30.7633 58.4458 29.4959C59.0067 28.2116 59.5846 26.961 60.1794 25.7443H63.9782C64.5561 26.961 65.1255 28.2116 65.6863 29.4959C66.2472 30.7633 66.8081 32.1067 67.369 33.5262C67.9469 34.9457 68.5333 36.4582 69.1281 38.0635C69.723 39.6689 70.3519 41.4179 71.0148 43.3106H66.7571ZM61.9896 29.724C61.9046 29.9775 61.7771 30.3239 61.6072 30.7633C61.4372 31.2026 61.2417 31.7096 61.0208 32.2842C60.7998 32.8587 60.5534 33.4924 60.2814 34.1853C60.0265 34.8781 59.763 35.6048 59.4911 36.3652H64.5136C64.2416 35.6048 63.9782 34.8781 63.7232 34.1853C63.4683 33.4924 63.2218 32.8587 62.9839 32.2842C62.7629 31.7096 62.5675 31.2026 62.3975 30.7633C62.2275 30.3239 62.0916 29.9775 61.9896 29.724Z" fill="#516AA3"/>
<path d="M81.6386 36.7454C81.6386 35.5794 81.3751 34.65 80.8482 33.9571C80.3213 33.2474 79.5395 32.8925 78.5027 32.8925C78.1628 32.8925 77.8483 32.9094 77.5594 32.9432C77.2704 32.9601 77.0325 32.9855 76.8455 33.0193V39.8379C77.0835 39.99 77.3894 40.1167 77.7633 40.2181C78.1543 40.3195 78.5452 40.3702 78.9361 40.3702C80.7378 40.3702 81.6386 39.162 81.6386 36.7454ZM85.5138 36.644C85.5138 37.6749 85.3863 38.6127 85.1314 39.4577C84.8764 40.3026 84.5025 41.0293 84.0096 41.6376C83.5167 42.246 82.9048 42.7191 82.174 43.0571C81.4431 43.3951 80.6018 43.5641 79.65 43.5641C79.1231 43.5641 78.6302 43.5134 78.1713 43.412C77.7124 43.3106 77.2704 43.167 76.8455 42.9811V48H73.0468V30.4337C73.3867 30.3324 73.7776 30.2394 74.2196 30.1549C74.6615 30.0535 75.1204 29.969 75.5963 29.9014C76.0892 29.8338 76.5821 29.7831 77.075 29.7493C77.5849 29.6986 78.0693 29.6733 78.5282 29.6733C79.633 29.6733 80.6188 29.8423 81.4856 30.1803C82.3524 30.5013 83.0833 30.9661 83.6782 31.5744C84.273 32.1659 84.7235 32.8925 85.0294 33.7544C85.3523 34.6162 85.5138 35.5794 85.5138 36.644Z" fill="#516AA3"/>
<path d="M97.0251 36.7454C97.0251 35.5794 96.7617 34.65 96.2348 33.9571C95.7079 33.2474 94.9261 32.8925 93.8893 32.8925C93.5493 32.8925 93.2349 32.9094 92.946 32.9432C92.657 32.9601 92.4191 32.9855 92.2321 33.0193V39.8379C92.47 39.99 92.776 40.1167 93.1499 40.2181C93.5408 40.3195 93.9318 40.3702 94.3227 40.3702C96.1243 40.3702 97.0251 39.162 97.0251 36.7454ZM100.9 36.644C100.9 37.6749 100.773 38.6127 100.518 39.4577C100.263 40.3026 99.8891 41.0293 99.3962 41.6376C98.9033 42.246 98.2914 42.7191 97.5605 43.0571C96.8297 43.3951 95.9883 43.5641 95.0365 43.5641C94.5096 43.5641 94.0167 43.5134 93.5578 43.412C93.0989 43.3106 92.657 43.167 92.2321 42.9811V48H88.4334V30.4337C88.7733 30.3324 89.1642 30.2394 89.6061 30.1549C90.048 30.0535 90.5069 29.969 90.9828 29.9014C91.4757 29.8338 91.9687 29.7831 92.4616 29.7493C92.9715 29.6986 93.4559 29.6733 93.9148 29.6733C95.0195 29.6733 96.0053 29.8423 96.8722 30.1803C97.739 30.5013 98.4698 30.9661 99.0647 31.5744C99.6596 32.1659 100.11 32.8925 100.416 33.7544C100.739 34.6162 100.9 35.5794 100.9 36.644Z" fill="#516AA3"/>
<path d="M2.40005 4C2.40005 1.79086 4.19092 0 6.40005 0H37.8573C39.6392 0 40.5315 2.15428 39.2716 3.41421L2.40005 40.2857V4Z" fill="url(#paint0_linear)"/>
<path d="M40.2857 44C40.2857 46.2091 38.4948 48 36.2857 48H4.82841C3.0466 48 2.15428 45.8457 3.41421 44.5858L40.2857 7.71429V44Z" fill="url(#paint1_linear)"/>
<defs>
<linearGradient id="paint0_linear" x1="2.40005" y1="9.85714" x2="16.5429" y2="23.1429" gradientUnits="userSpaceOnUse">
<stop stop-color="#59A9F2"/>
<stop offset="1" stop-color="#516AA3"/>
</linearGradient>
<linearGradient id="paint1_linear" x1="40.2857" y1="38.1429" x2="22.7143" y2="23.5714" gradientUnits="userSpaceOnUse">
<stop stop-color="#59A9F2"/>
<stop offset="1" stop-color="#516AA3"/>
</linearGradient>
</defs>
</svg>
