<svg width="24" height="24" viewBox="0 0 24 24" fill="none" xmlns="http://www.w3.org/2000/svg">
<path fill-rule="evenodd" clip-rule="evenodd" d="M9.4993 2.66828C9.66127 1.70525 10.495 1 11.4716 1H12.5284C13.505 1 14.3387 1.70525 14.5007 2.66828L14.8661 4.84071C15.5752 5.11973 16.2331 5.49922 16.8218 5.96145L18.9117 5.18559C19.83 4.8447 20.8644 5.21451 21.3568 6.05975L21.8698 6.94025C22.3623 7.78549 22.1683 8.85809 21.4113 9.47566L19.6889 10.8807C19.7426 11.2461 19.7704 11.6198 19.7704 12C19.7704 12.3802 19.7426 12.7539 19.6889 13.1193L21.4113 14.5243C22.1683 15.1419 22.3623 16.2145 21.8698 17.0597L21.3568 17.9402C20.8644 18.7855 19.83 19.1553 18.9117 18.8144L16.8218 18.0385C16.2331 18.5008 15.5752 18.8803 14.8661 19.1593L14.5007 21.3317C14.3387 22.2948 13.505 23 12.5284 23H11.4716C10.495 23 9.66127 22.2948 9.4993 21.3317L9.13392 19.1593C8.42476 18.8803 7.76688 18.5008 7.17817 18.0385L5.08824 18.8144C4.17 19.1553 3.13561 18.7855 2.64315 17.9403L2.13015 17.0597C1.63769 16.2145 1.83169 15.1419 2.58873 14.5243L4.31112 13.1193C4.25742 12.7539 4.22963 12.3801 4.22963 12C4.22963 11.6199 4.25743 11.2461 4.31112 10.8807L2.58873 9.47566C1.83169 8.85809 1.63769 7.78549 2.13015 6.94025L2.64315 6.05974C3.13561 5.21451 4.17 4.8447 5.08825 5.18559L7.17818 5.96146C7.76688 5.49923 8.42476 5.11974 9.13392 4.84072L9.4993 2.66828ZM15.3302 12C15.3302 13.8225 13.8392 15.3 12 15.3C10.1608 15.3 8.66984 13.8225 8.66984 12C8.66984 10.1775 10.1608 8.7 12 8.7C13.8392 8.7 15.3302 10.1775 15.3302 12Z" fill="#435379"/>
</svg>
