<svg
        width="24"
        height="24"
        viewBox="0 0 24 24"
        fill="none"
        xmlns="http://www.w3.org/2000/svg"
>
    <path
            fill-rule="evenodd"
            clip-rule="evenodd"
            d="M10 3C10 1.89543 10.8954 1 12 1C13.1046 1 14 1.89543 14 3H19C20.1046 3 21 3.89543 21 5C21 6.10457 20.1046 7 19 7H5C3.89543 7 3 6.10457 3 5C3 3.89543 3.89543 3 5 3H10ZM18.142 20.1534L19 9H5L5.85795 20.1534C5.93811 21.1954 6.80699 22 7.85206 22H16.1479C17.193 22 18.0619 21.1954 18.142 20.1534Z"
            fill="#435379"
            fill-opacity="0.4"
    />
</svg>