<svg id="Layer_3" enable-background="new 0 0 64 64" height="512" viewBox="0 0 64 64" width="512" xmlns="http://www.w3.org/2000/svg"><g><circle cx="32" cy="14" fill="#f5b95b" r="12"/><path d="m20 14c0 4.058 2.02 7.638 5.103 9.81 8.427-1.116 14.897-7.535 14.897-15.31 0-1.359-.217-2.669-.588-3.925-2.042-1.608-4.612-2.575-7.412-2.575-6.627 0-12 5.373-12 12z" fill="#f9d18f"/><path d="m32 52 20.957-5.716c1.657-.452 3.498.122 4.42 1.571.395.62.623 1.356.623 2.145v1l-32 11-6-2h-8v-16h12z" fill="#efbe9c"/><path d="m6 42h6v20h-6z" fill="#698ec0"/><g><path d="m29 56.826c-.98 0-1.961-.373-2.707-1.119l-5-5 1.414-1.414 5 5c.713.713 1.873.713 2.586 0s.713-1.873 0-2.586l-6.707-6.707h-11.586v-2h12c.265 0 .52.105.707.293l7 7c1.493 1.492 1.493 3.922 0 5.414-.746.746-1.727 1.119-2.707 1.119z" fill="#b38f75"/></g><path d="m2 26 8-8 8 8z" fill="#669e54"/><path d="m2 26h16v12h-16z" fill="#ebf7fe"/><path d="m7 38v-5c0-1.657 1.343-3 3-3 1.657 0 3 1.343 3 3v5z" fill="#669e54"/><path d="m32 13c-1.103 0-2-.897-2-2s.897-2 2-2 2 .897 2 2h2c0-1.859-1.28-3.411-3-3.858v-2.142h-2v2.142c-1.72.447-3 1.999-3 3.858 0 2.206 1.794 4 4 4 1.103 0 2 .897 2 2s-.897 2-2 2-2-.897-2-2h-2c0 1.859 1.28 3.411 3 3.858v2.142h2v-2.142c1.72-.447 3-1.999 3-3.858 0-2.206-1.794-4-4-4z" fill="#fff"/><g><path d="m32.707 44.707-1.414-1.414 6-6c.187-.188.442-.293.707-.293h25v2h-24.586z" fill="#88929f"/></g><g fill="#669e54"><path d="m48 23h4v11h-4z"/><path d="m56 19h4v15h-4z"/><path d="m40 27h4v7h-4z"/></g><g><path d="m37 33h26v2h-26z" fill="#88929f"/></g></g></svg>