<svg id="Capa_1" enable-background="new 0 0 512 512" height="512" viewBox="0 0 512 512" width="512" xmlns="http://www.w3.org/2000/svg"><g><path d="m256 193.33 23.48 31.865-23.48 31.865h-63.73l-24.903-31.865 24.903-31.865z" fill="#3e4d59"/><g><g><g><path d="m0 257.06v254.94h128l92.44-141-92.44-113.94z" fill="#d5e8fe"/></g><g><path d="m256 257.06h-128v254.94h128l55.16-138.108z" fill="#b5dbff"/></g></g></g><g><path d="m256 287.87v224.13h128l82.68-116.965-82.68-107.165-70.68-30.81z" fill="#d5e8fe"/><path d="m512 287.87-79.16-31.87-48.84 31.87v224.13h128z" fill="#b5dbff"/></g><g><path d="m256 63.73v224.14h128l89.266-104.07-89.266-120.07-68.52-43.37z" fill="#edf5ff"/><path d="m512 63.73-68.734-43.37-59.266 43.37v224.14h128z" fill="#d5e8fe"/></g><g><g><g><path d="m443.266 111.535h30v95.602h-30z" fill="#3e4d59"/></g></g></g><g><g><g><path d="m443.266 335.668h30v95.602h-30z" fill="#3e4d59"/></g></g></g><g><path d="m0 193.33v63.73h128l24.367-31.865-24.367-31.865z" fill="#edf5ff"/><path d="m128 193.33h64.27v63.73h-64.27z" fill="#d5e8fe"/></g><g><path d="m71.828 383.469c0 31.023 25.149 56.172 56.172 56.172l24.367-56.172-24.367-56.172c-31.023 0-56.172 25.149-56.172 56.172z" fill="#edf5ff"/><path d="m128 327.297v112.344c31.023 0 56.172-25.149 56.172-56.172s-25.149-56.172-56.172-56.172z" fill="#d5e8fe"/></g><g><path d="m176.734 384.531c0-26.872-21.862-48.734-48.734-48.734v97.469c26.872 0 48.734-21.863 48.734-48.735z" fill="none"/><path d="m79.266 384.531c0 26.872 21.862 48.734 48.734 48.734v-97.469c-26.872.001-48.734 21.863-48.734 48.735z" fill="none"/><path d="m79.266 384.531c0-26.872 21.862-48.734 48.734-48.734l8.889-17.388-8.889-12.612c-43.414 0-78.734 35.32-78.734 78.734s35.32 78.734 78.734 78.734l13.96-13.066-13.96-16.933c-26.872 0-48.734-21.863-48.734-48.735z" fill="#516373"/><path d="m128 305.797v30c21.639 0 40.02 14.181 46.362 33.734h-46.362v30h46.362c-6.342 19.553-24.723 33.734-46.362 33.734v30c43.414 0 78.734-35.32 78.734-78.734s-35.32-78.734-78.734-78.734z" fill="#3e4d59"/></g><g><path d="m256 0v63.73h128l36.6-31.865-36.6-31.865z" fill="#516373"/><path d="m384 0h128v63.73h-128z" fill="#3e4d59"/></g></g></svg>