<svg id="Layer_1" height="512" viewBox="0 0 256 256" width="512" xmlns="http://www.w3.org/2000/svg"><g><g><g><g><g><g><g><path d="m128 38.911-92.026 74.787v128.668c0 5.523 4.477 10 10 10h164.053c5.523 0 10-4.477 10-10v-128.667z" fill="#f1f2f2"/></g><g><path d="m41.974 193c-1.104 0-2-.896-2-2v-66c0-1.104.896-2 2-2s2 .896 2 2v66c0 1.104-.896 2-2 2zm0-74c-1.104 0-2-.896-2-2v-.447c0-1.104.896-2 2-2s2 .896 2 2v.447c0 1.104-.896 2-2 2z" fill="#fff"/></g><g><path d="m210.026 105.572v126.794c0 5.523-4.477 10-10 10h-164.052c0 5.523 4.477 10 10 10h164.053c5.523 0 10-4.477 10-10v-128.667z" fill="#e6e7e8"/></g><g><path d="m215.026 109.635v127.731c0 5.523-4.477 10-10 10h-164.052c-1.466 0-2.855-.323-4.11-.89 1.569 3.471 5.053 5.89 9.11 5.89h164.053c5.523 0 10-4.477 10-10v-128.667z" fill="#d1d3d4"/></g><g><path d="m241.9 91.743-104.169-84.656c-5.664-4.604-13.781-4.604-19.443 0l-104.594 85.001c-6.607 5.368-7.61 15.076-2.241 21.682 5.367 6.608 15.078 7.611 21.682 2.241l94.874-77.101 94.873 77.101c8.168 5.969 17.935 3.454 22.723-3.675 4.423-6.585 2.451-15.59-3.705-20.593z" fill="#377de2"/></g><g><path d="m245.605 102.88c-4.788 7.129-14.556 9.644-22.723 3.676l-94.873-77.101-94.874 77.101c-6.604 5.37-16.315 4.367-21.682-2.241-1.243-1.529-2.129-3.228-2.699-4.998-1.544 4.797-.717 10.251 2.699 14.453 5.367 6.608 15.078 7.611 21.682 2.241l94.874-77.101 94.873 77.101c8.168 5.968 17.935 3.454 22.723-3.676 2.591-3.858 2.974-8.542 1.62-12.77-.389 1.149-.915 2.265-1.62 3.315z" fill="#2266d3"/></g></g></g></g></g></g><g><g><g><path d="m89.615 148.55h3.865v14.026h-3.865z" fill="#939598"/></g><g><path d="m97.662 119.082h-12.228c-.864 0-1.631.555-1.9 1.377l-8.352 25.468c-.424 1.293.539 2.623 1.9 2.623h28.932c1.361 0 2.325-1.33 1.9-2.623l-8.352-25.468c-.269-.821-1.036-1.377-1.9-1.377z" fill="#5e9cf7"/></g><g><path d="m107.914 145.927-8.352-25.468c-.269-.821-1.036-1.377-1.9-1.377h-1.912l7.164 21.845c.424 1.293-.539 2.623-1.9 2.623h-25.053l-.779 2.377c-.424 1.293.539 2.623 1.9 2.623h28.932c1.361 0 2.324-1.329 1.9-2.623z" fill="#478cf7"/></g></g><g><g><g><path d="m120.013 102.308h51.422v60.268h-51.422z" fill="#e59076"/></g></g><g><g><path d="m171.435 102.308h5.961v60.268h-5.961z" fill="#ffd2c0"/></g></g><g><g><path d="m114.052 102.308h5.961v60.268h-5.961z" fill="#ffd2c0"/></g></g><g><path d="m178.919 92.556h-66.391c-1.105 0-2 .895-2 2v5.752c0 1.105.895 2 2 2h66.391c1.105 0 2-.895 2-2v-5.752c0-1.104-.895-2-2-2z" fill="#fcc4ae"/></g><g><path d="m120.013 129.791h51.422v6.933h-51.422z" fill="#ffd2c0"/></g><g><g><path d="m120.013 102.308h51.422v27.483h-51.422z" fill="#f2ad97"/></g><g><path d="m169.435 102.308v23.483c0 1.105-.895 2-2 2h-47.422v2h51.422v-27.483z" fill="#e59076"/></g><g><path d="m120.013 102.308h8.433v27.483h-8.433z" fill="#e63950"/></g><g><path d="m126.445 102.308v23.483c0 1.105-.895 2-2 2h-4.432v2h8.432v-27.483z" fill="#d10028"/></g><g><path d="m128.445 102.308h6.055v27.483h-6.055z" fill="#377de2"/></g><g><path d="m132.5 102.308v23.483c0 1.105-.895 2-2 2h-2.055v2h6.055v-27.483z" fill="#2266d3"/></g><g><path d="m134.5 102.308h7v27.483h-7z" fill="#995222"/></g><g><path d="m139.5 102.308v23.483c0 1.105-.895 2-2 2h-3v2h7v-27.483z" fill="#8c3f0a"/></g><g><path d="m147.993 110v19.792h-6.493v-21.792h4.493c1.104 0 2 .895 2 2z" fill="#e63950"/></g><g><path d="m145.992 108v17.792c0 1.105-.895 2-2 2h-2.492v2h6.492v-19.792c0-1.104-.895-2-2-2z" fill="#d10028"/></g><g><path d="m120.013 136.725h51.422v25.852h-51.422z" fill="#f2ad97"/></g><g><path d="m120.013 160.576h51.422v2h-51.422z" fill="#e59076"/></g><g><path d="m161.5 136.725h9.935v25.852h-9.935z" fill="#377de2"/></g><g><path d="m169.435 136.725v21.852c0 1.105-.895 2-2 2h-5.935v2h9.935v-25.852z" fill="#2266d3"/></g><g><path d="m154.75 136.725h6.75v25.852h-6.75z" fill="#995222"/></g><g><path d="m159.5 136.725v21.852c0 1.105-.895 2-2 2h-2.75v2h6.75v-25.852z" fill="#8c3f0a"/></g><g><path d="m149 136.725h5.75v25.852h-5.75z" fill="#e63950"/></g><g><path d="m152.75 136.725v21.852c0 1.105-.895 2-2 2h-1.75v2h5.75v-25.852z" fill="#d10028"/></g></g></g></g><g><g><path d="m77.621 217.186h100.758v26.808h-100.758z" fill="#ffa91a"/></g><g><path d="m175.024 217.186v20.099c0 1.853-1.502 3.355-3.355 3.355h-94.048v3.355h100.758v-26.808h-3.355z" fill="#ef7816"/></g><g><g><g><path d="m185.767 243.994h-14.105l1.032 6.678c.151.975.99 1.695 1.977 1.695h8.089c.987 0 1.826-.72 1.977-1.695z" fill="#414042"/></g></g><g><g><path d="m84.339 243.994h-14.106l1.032 6.678c.151.975.99 1.695 1.977 1.695h8.089c.987 0 1.826-.72 1.977-1.695z" fill="#414042"/></g></g></g><g><path d="m77.621 207.094h100.758v10.092h-100.758z" fill="#ffc91d"/></g><g><path d="m187.76 207.094h-119.52v-39.518c0-2.761 2.239-5 5-5h109.52c2.761 0 5 2.239 5 5z" fill="#ffa91a"/></g><g><path d="m181.293 207.094h-106.586v-32.636c0-3.705 3.004-6.709 6.709-6.709h93.169c3.705 0 6.709 3.004 6.709 6.709v32.636z" fill="#f79219"/></g><g><path d="m177.342 168.347c.38.842.597 1.773.597 2.757v29.281c0 1.853-1.502 3.355-3.355 3.355h-99.877v3.355h106.587v-32.636c-.001-2.722-1.624-5.06-3.952-6.112z" fill="#ef7816"/></g><g><g><circle cx="153.22" cy="186.276" fill="#ef7816" r="5.227"/></g><g><circle cx="102.78" cy="186.276" fill="#ef7816" r="5.227"/></g></g><g><g><path d="m61.708 191.638c-6.425.724-11.686 5.916-12.486 12.332-.847 6.798 3.101 12.788 8.911 15.084v17.435c0 4.145 3.36 7.505 7.505 7.505h11.982v-38.193c.001-8.42-7.297-15.134-15.912-14.163z" fill="#f79219"/></g><g><g><path d="m71.625 194.184c1.662 2.331 2.642 5.181 2.642 8.262v31.484c0 3.705-3.004 6.709-6.709 6.709h-5.273c-1.207 0-2.343-.292-3.353-.798 1.232 2.46 3.769 4.152 6.707 4.152h11.982v-38.193c0-4.793-2.368-9.032-5.996-11.616z" fill="#ef7816"/></g></g><g><g><circle cx="63.316" cy="205.236" fill="#ef7816" r="5.227"/></g><g><circle cx="63.316" cy="205.236" fill="#ffc91d" r="1.94"/></g></g><g><path d="m194.291 191.638c6.579.741 11.844 6.066 12.522 12.651.686 6.665-3.228 12.505-8.948 14.764v18.231c0 3.705-3.004 6.709-6.709 6.709h-12.778v-38.193c.001-8.419 7.298-15.133 15.913-14.162z" fill="#f79219"/></g><g><path d="m206.814 204.289c-.427-4.145-2.673-7.788-5.918-10.106 1.392 1.951 2.307 4.26 2.564 6.751.686 6.665-3.228 12.504-8.948 14.764v18.231c0 3.705-3.004 6.709-6.709 6.709h-9.424v3.355h12.778c3.705 0 6.709-3.004 6.709-6.709v-18.231c5.719-2.259 9.634-8.099 8.948-14.764z" fill="#ef7816"/></g><g><g><circle cx="192.684" cy="205.236" fill="#ef7816" r="5.227"/></g><g><circle cx="192.684" cy="205.236" fill="#ffc91d" r="1.94"/></g></g></g><g><path d="m127.086 162.576h1.828v41.163h-1.828z" fill="#ffa91a"/></g></g></g></svg>