<svg id="Capa_1" enable-background="new 0 0 498.658 498.658" height="512" viewBox="0 0 498.658 498.658" width="512" xmlns="http://www.w3.org/2000/svg"><g><path d="m395.252 176.586v15.844 116.871c0 10.033-8.162 18.195-18.195 18.195h-109.763v30h109.763c26.575 0 48.195-21.62 48.195-48.195v-116.872l.085-15.844h-30.085z" fill="#a59ca6"/><path d="m441.807 112.866-27.36-37.621c-3.448-4.741-9.007-7.572-14.869-7.572h-6.94v15h6.94c1.079 0 2.104.521 2.738 1.395l27.361 37.622c.423.582.646 1.27.646 1.99v57.988c0 .758-.262 1.447-.687 2.008h15.568c.072-.661.12-1.329.12-2.008v-57.988c0-3.913-1.216-7.653-3.517-10.814z" fill="#e1dee2"/><path d="m402.49 75.049v-29.778l22.004-25.377c1.551-1.789 1.456-4.472-.218-6.146l-10.926-10.926c-1.611-1.611-4.171-1.768-5.967-.366l-24.568 19.179c-7.613 5.943-12.063 15.063-12.063 24.721v39.579 28.028h33.341z" fill="#f3f1f3"/><g><path d="m350.025 235.956c0-2.13.772-4.187 2.173-5.791l13.388-15.333c3.331-3.815 5.166-8.708 5.166-13.772v-170.008c0-17.149-13.902-31.052-31.052-31.052h-230.813c-17.15 0-31.052 13.903-31.052 31.052v170.007c0 5.064 1.835 9.957 5.166 13.772l13.388 15.333c1.401 1.604 2.173 3.662 2.173 5.791v255.959h251.464v-255.958z" fill="#badafb"/><g id="XMLID_230_"><g><path d="m192.642 444.312c-17.627 0-31.916-14.289-31.916-31.916v-161.743c0-15.372-5.864-29.997-15.784-41.74-.052-.061-.103-.122-.154-.184-1.993-2.415-.176-6.071 2.954-6.071h182.571c10.737 0 19.44-8.704 19.44-19.44v-142.781c0-10.736-8.704-19.44-19.44-19.44h-176.776c-7.508 0-11.658-8.616-7.071-14.559 1.904-2.467 4.172-4.64 6.723-6.438h-44.303c-17.15 0-31.052 13.903-31.052 31.052v170.006c0 5.065 1.835 9.958 5.166 13.773l13.388 15.333c1.401 1.604 2.173 3.662 2.173 5.792v255.959h47.523 203.941v-5.658-41.944h-157.383z" fill="#97c9f9"/><path d="m334.754 40.437v142.78c0 2.45-1.99 4.44-4.44 4.44h-212.04c-2.45 0-4.44-1.99-4.44-4.44v-142.78c0-2.45 1.99-4.44 4.44-4.44h212.04c2.45 0 4.44 1.99 4.44 4.44z" fill="#f3f1f3"/></g></g><path d="m216.793 35.997h15v151.66h-15z" fill="#e1dee2"/><path d="m190.779 100.347h-43.43c-3.293 0-5.963-2.67-5.963-5.963v-25.139c0-3.293 2.67-5.963 5.963-5.963h43.43c3.293 0 5.963 2.67 5.963 5.963v25.139c0 3.294-2.67 5.963-5.963 5.963z" fill="#e1dee2"/><g><path d="m196.743 136.328h-55.357c-4.143 0-7.5-3.358-7.5-7.5s3.357-7.5 7.5-7.5h55.357c4.143 0 7.5 3.358 7.5 7.5s-3.358 7.5-7.5 7.5z" fill="#e1dee2"/></g><g><path d="m196.743 164.195h-55.357c-4.143 0-7.5-3.358-7.5-7.5s3.357-7.5 7.5-7.5h55.357c4.143 0 7.5 3.358 7.5 7.5s-3.358 7.5-7.5 7.5z" fill="#e1dee2"/></g><path d="m257.808 100.347h43.431c3.293 0 5.963-2.67 5.963-5.963v-25.139c0-3.293-2.67-5.963-5.963-5.963h-43.431c-3.293 0-5.963 2.67-5.963 5.963v25.139c0 3.294 2.669 5.963 5.963 5.963z" fill="#e1dee2"/><g><path d="m307.202 136.328h-55.357c-4.143 0-7.5-3.358-7.5-7.5s3.357-7.5 7.5-7.5h55.357c4.143 0 7.5 3.358 7.5 7.5s-3.358 7.5-7.5 7.5z" fill="#e1dee2"/></g><g><path d="m307.202 164.195h-55.357c-4.143 0-7.5-3.358-7.5-7.5s3.357-7.5 7.5-7.5h55.357c4.143 0 7.5 3.358 7.5 7.5s-3.358 7.5-7.5 7.5z" fill="#e1dee2"/></g><path d="m384.484 498.658h-320.382c-5.947 0-10.768-4.821-10.768-10.768v-17.81c0-5.947 4.821-10.768 10.768-10.768h320.382c5.947 0 10.768 4.821 10.768 10.768v17.811c0 5.946-4.821 10.767-10.768 10.767z" fill="#a59ca6"/><circle cx="224.294" cy="332.501" fill="#f3f1f3" r="92.851"/><path d="m160.725 400.172v-135.341c-18.023 16.937-29.282 40.987-29.282 67.671 0 26.683 11.26 50.733 29.282 67.67z" fill="#e1dee2"/><path d="m216.793 357.496v36.526c0 4.142 3.357 7.5 7.5 7.5s7.5-3.358 7.5-7.5v-36.526z" fill="#a6d786"/><path d="m261.93 336.184c0 20.786-16.851 37.637-37.637 37.637s-37.637-16.851-37.637-37.637c0-16.514 23.754-50.385 33.52-63.612 2.047-2.773 6.187-2.773 8.234 0 9.766 13.228 33.52 47.099 33.52 63.612z" fill="#b8de9c"/><g fill="#a6d786"><path d="m216.793 373.072c2.424.49 4.932.75 7.5.75s5.076-.259 7.5-.75v-95.848c-1.244-1.734-2.389-3.304-3.383-4.65-2.047-2.773-6.187-2.773-8.234 0-.994 1.346-2.139 2.916-3.383 4.65z"/><path d="m196.194 309.443c-2.715 5.013-5.093 9.973-6.791 14.518l29.19 29.166c1.465 1.464 3.385 2.197 5.304 2.197s3.839-.732 5.304-2.197c2.929-2.929 2.929-7.678 0-10.606z"/><path d="m252.414 309.483-32.895 32.88c-2.929 2.929-2.929 7.678 0 10.606 1.465 1.465 3.384 2.197 5.304 2.197 1.919 0 3.839-.732 5.304-2.197l29.047-29.033c-1.692-4.527-4.058-9.46-6.76-14.453z"/></g><g id="XMLID_231_"><g><path d="m410.694 147.517 34.63 34.03c0 6.01-4.88 10.88-10.89 10.88h-52.8c-6.009 0-10.88-4.871-10.88-10.88v-95.61c0-6.014 4.876-10.89 10.89-10.89h21.177c2.349 0 4.253 1.904 4.253 4.253v59.577c0 3.25 1.31 6.37 3.62 8.64z" fill="#97c9f9"/></g></g></g></g></svg>