<svg id="Capa_1" enable-background="new 0 0 509.722 509.722" height="512" viewBox="0 0 509.722 509.722" width="512" xmlns="http://www.w3.org/2000/svg"><g><g><path d="m250.884 421.743c-.283 0-.568-.015-.856-.047-4.241-.468-7.301-4.285-6.833-8.527l30.166-273.689c.467-4.241 4.277-7.304 8.526-6.833 4.241.468 7.301 4.285 6.834 8.527l-30.166 273.689c-.436 3.954-3.783 6.88-7.671 6.88z" fill="#eff6ff"/></g><g><path d="m202.964 161.079c-.281 0-.564-.015-.85-.046-4.242-.464-7.304-4.279-6.84-8.521l2.336-21.348c.464-4.241 4.269-7.306 8.521-6.84 4.242.464 7.304 4.279 6.84 8.521l-2.336 21.348c-.433 3.956-3.781 6.886-7.671 6.886z" fill="#7e707d"/></g><g><path d="m106.83 150.482c-.284 0-.571-.016-.86-.047-4.241-.47-7.299-4.289-6.829-8.53l2.365-21.348c3.526-3.558 6.161-4.969 10.394-4.502 4.241.47 5.435 1.963 4.965 6.204l-2.365 21.348c-.438 3.951-3.784 6.875-7.67 6.875z" fill="#7e707d"/></g><g><path d="m364.13 178.834c-.285 0-.571-.016-.861-.047-4.24-.47-7.298-4.289-6.828-8.53l2.365-21.348c.47-4.24 4.27-7.298 8.53-6.829 4.24.47 7.298 4.289 6.828 8.53l-2.365 21.348c-.437 3.952-3.783 6.876-7.669 6.876z" fill="#7e707d"/></g><g><path d="m450.569 188.35c-.284 0-.57-.016-.86-.047-4.241-.47-7.298-4.289-6.828-8.53l2.365-21.348c.47-4.24 4.273-7.291 8.53-6.828 4.241.47 3.626 4.662 6.828 8.53l-2.365 21.348c-.438 3.951-3.784 6.875-7.67 6.875z" fill="#7e707d"/></g><g><path clip-rule="evenodd" d="m432.658 405.577v-36.825l-20.471-11.206-20.471 11.206v37.438c4.342 3.552 13.992 6.401 20.471 6.299 7.234-.113 15.464-2.747 20.471-6.912z" fill="#ce9875" fill-rule="evenodd"/></g><g><path clip-rule="evenodd" d="m176.701 406.073v-37.321l-19.755-13.953-19.755 13.953v40.125c4.413 5.14 12.422 6.666 19.007 6.188s17.17-2.576 20.503-8.992z" fill="#ce9875" fill-rule="evenodd"/></g><g><path clip-rule="evenodd" d="m366.69 149.789c14.431-20.084 6.655-54.767-2.57-78.585-9.932-25.642-37.256-48.982-58.988-58.493-3.004-1.315-6.523-1.285-9.87-1.285-38.449 0-58.565 26.68-73.819 49.257-14.52 21.491-25.755 51.509-16.153 71.322l75.75 8.323 85.445 9.433z" fill="#a0ddfa" fill-rule="evenodd"/></g><g><path clip-rule="evenodd" d="m419.546 333.855 70.844-70.846c7.534-7.505 7.534-19.829 0-27.363s-19.857-7.534-27.392 0l-97.68 97.654z" fill="#ce9875" fill-rule="evenodd"/></g><g><path clip-rule="evenodd" d="m205.29 132.004c4.76-42.987 36.298-97.713 89.972-120.579-4.118-.467-8.147-.788-12.148-1.022h-23.537c-79.868 4.556-135.03 55.573-158.071 110.153z" fill="#fe8d94" fill-rule="evenodd"/></g><g><path clip-rule="evenodd" d="m460.604 160.127c-11.71-64.334-62.58-132.99-155.472-147.416 47.307 33.963 66.201 94.121 61.558 137.078z" fill="#fe8d94" fill-rule="evenodd"/></g><g><path clip-rule="evenodd" d="m413.647 154.958 46.957 5.169c-11.71-64.334-62.58-132.99-155.472-147.416 70.436 33.349 96.805 77.825 108.515 142.247z" fill="#ff6d75" fill-rule="evenodd"/></g><g><path clip-rule="evenodd" d="m347.391 476.713c.029-.029.058-.029.088-.029-.03 0-.059 0-.088.029zm162.331 21.054v-84.522c0-2.506-1.852-4.618-4.335-4.957-48.316-6.599-154.318-3.289-190.881 2.63-33.407 5.373-58.375 4.176-72.713 1.197-121.013-24.939-194.135 22.778-214.927 50.842 10.659-4.964 25.029 11.42 38.492 11.449 33.232.029 72.684 9.462 106.88-.35.234-.058.496-.146.73-.204 1.431-.409 2.891-.818 4.322-1.197 4.935-1.314 9.812-2.453 14.63-3.446 36.619-7.534 70.231-6.308 97.506-.292 13.842 3.037 26.077 7.33 36.24 12.324 5.84-.642 11.564-1.665 17.142-3.271.204-.058.438-.117.642-.175 1.314-.38 2.628-.759 3.942-1.081.029-.029.058-.029.088-.029.029-.029.088-.029.146-.058.584-.146 1.197-.292 1.811-.467.058 0 .146-.029.234-.058.175-.029.38-.088.584-.146 3.475-.876 6.95-1.665 10.425-2.395 33.203-6.833 57.421-5.858 82.155-.397 37.931 8.351 66.77 9.096 66.887 24.603z" fill="#fde588" fill-rule="evenodd"/></g><g><path clip-rule="evenodd" d="m454.997 368.752c10.863 0 19.77-8.907 19.77-19.8s-8.907-19.77-19.77-19.77h-29.319-52.155-250.524c-10.892 0-19.799 8.878-19.799 19.77s8.907 19.8 19.799 19.8h14.192 39.51 215.015 40.941z" fill="#ffbc85" fill-rule="evenodd"/></g><g><path clip-rule="evenodd" d="m345.46 459.748.088-.029c-.029 0-.059 0-.088.029zm2.862-.759c.146-.029.292-.088.438-.117-.146.029-.292.088-.438.117z" fill="#fdd76f" fill-rule="evenodd"/></g><g><path clip-rule="evenodd" d="m424.247 329.182h-9.403c2.774 0 5.402.555 7.797 1.577 7.038 3.037 12.002 10.075 12.002 18.193 0 10.834-8.848 19.741-19.682 19.8h17.696 22.34c10.863 0 19.77-8.907 19.77-19.8s-8.907-19.77-19.77-19.77h-29.319z" fill="#f5a96c" fill-rule="evenodd"/></g><g><path clip-rule="evenodd" d="m465.744 235.645c7.534 7.534 7.534 19.858 0 27.392l-66.143 66.145h15.243 9.403l66.143-66.174c7.534-7.505 7.534-19.829 0-27.363-7.096-7.096-18.427-7.505-26.019-1.256.467.38.934.789 1.373 1.256z" fill="#c6865c" fill-rule="evenodd"/></g><g><path clip-rule="evenodd" d="m137.191 368.752h39.51v18.661h-39.51z" fill="#c6865c" fill-rule="evenodd"/></g><g><path clip-rule="evenodd" d="m391.716 368.752h40.941v18.661h-40.941z" fill="#c6865c" fill-rule="evenodd"/></g><path clip-rule="evenodd" d="m442.722 464.205c37.934 8.352 66.883 18.072 67 33.578v-84.527c0-2.506-1.852-4.616-4.335-4.957-18.293-2.514-44.825-3.59-72.73-3.644-13.579 0-27.508.204-40.941.613-31.947.993-61.208 3.066-77.21 5.665-33.232 5.344-58.141 4.176-72.538 1.256 24.851 11.039 44.369 29.341 55.671 45.432 9.841 2.745 20.099 8.316 27.75 12.083 5.84-.642 14.494-1.394 20.072-3 .204-.058 8.432.558 8.637.5 1.313-.379 63.89-8.46 88.624-2.999z" fill="#fdd76f" fill-rule="evenodd"/><g><path clip-rule="evenodd" d="m340.875 461.004c-31.042 8.907-66.844.35-97.009.321-26.72-.058-49.001 6.6-59.631 37.993h323.944s1.542.001 1.542-1.38c0-15.354-25.244-33.398-62.522-41.607-28.968-6.366-65.792-6.833-105.682 4.497-.204.059-.437.118-.642.176z" fill="#75cef9" fill-rule="evenodd"/></g><g><path clip-rule="evenodd" d="m170.306 457.091c-34.196 9.812-73.648.38-106.88.35-27.355-.054-50.482 6.26-63 34.856-1.448 3.307.971 7.021 4.581 7.021h351.346c.613-17.23-26.486-38.051-68.858-47.367-31.947-7.038-72.509-7.534-116.458 4.935-.264.059-.497.146-.731.205z" fill="#a0ddfa" fill-rule="evenodd"/></g></g></svg>