<svg id="Layer_1" height="512" viewBox="0 0 128 128" width="512" xmlns="http://www.w3.org/2000/svg" data-name="Layer 1"><path d="m30.528 77.919h-24v-18.237a24.027 24.027 0 0 1 24-24h76.845v24h-76.845z" fill="#e7ecf1"/><path d="m17.123 49.431a1.751 1.751 0 0 1 -1.3-2.918 19.777 19.777 0 0 1 14.707-6.581h4.47a1.75 1.75 0 0 1 0 3.5h-4.473a16.276 16.276 0 0 0 -12.1 5.417 1.747 1.747 0 0 1 -1.304.582z" fill="#c3c7cb"/><path d="m103.808 30.967h17.692v33.429h-17.692z" fill="#c3c7cb"/><path d="m70.124 32.968h-6v-23.468a3 3 0 0 1 3-3 3 3 0 0 1 3 3z" fill="#e7ecf1"/><path d="m62.441 12.779-10.507-1.046a5.029 5.029 0 0 0 -5.527 5 5.029 5.029 0 0 0 5.527 5l10.508-1.033a47.178 47.178 0 0 1 9.356 0l10.508 1.046a5.029 5.029 0 0 0 5.527-5 5.029 5.029 0 0 0 -5.527-5l-10.506 1.033a47.2 47.2 0 0 1 -9.359 0z" fill="#c3c7cb"/><g fill="#61a2f9"><path d="m74.5 67.057h-14.751a12 12 0 0 1 -12-12v-20.75a6 6 0 0 1 6-6h26.751a6 6 0 0 1 6 6v20.75a12 12 0 0 1 -12 12z"/><path d="m6.5 109.486a12.014 12.014 0 0 0 24.028 0c0-6.635-12.014-22.519-12.014-22.519s-12.014 15.884-12.014 22.519z"/></g></svg>